<mxfile host="app.diagrams.net" modified="2024-01-20T19:47:19.596Z" agent="Mozilla/5.0 (Macintosh; Intel Mac OS X 10_15_7) AppleWebKit/537.36 (KHTML, like Gecko) Chrome/120.0.0.0 Safari/537.36" etag="RBMSGfvRH_VMmjS8rimt" version="22.1.18" type="device">
  <diagram name="Page-1" id="wiqvjYzWOXX41bzFWbWP">
    <mxGraphModel dx="1741" dy="689" grid="1" gridSize="10" guides="1" tooltips="1" connect="1" arrows="1" fold="1" page="1" pageScale="1" pageWidth="1169" pageHeight="827" math="1" shadow="0">
      <root>
        <mxCell id="0" />
        <mxCell id="1" parent="0" />
        <mxCell id="_hNOkcOsogZEmMkvzFGR-111" value="&lt;b&gt;&lt;font style=&quot;font-size: 20px;&quot;&gt;Generator&lt;/font&gt;&lt;/b&gt;" style="rounded=1;whiteSpace=wrap;html=1;fillColor=#f8cecc;strokeColor=#000000;glass=0;shadow=0;strokeWidth=3;verticalAlign=top;movable=1;resizable=1;rotatable=1;deletable=1;editable=1;locked=0;connectable=1;opacity=80;" vertex="1" parent="1">
          <mxGeometry x="9" y="920" width="700" height="640" as="geometry" />
        </mxCell>
        <mxCell id="_hNOkcOsogZEmMkvzFGR-71" value="" style="verticalLabelPosition=bottom;verticalAlign=top;html=1;shape=hexagon;perimeter=hexagonPerimeter2;arcSize=6;size=0.27;fillColor=#9dbcd3;strokeColor=#000000;strokeWidth=2;" vertex="1" parent="1">
          <mxGeometry x="19" y="1270" width="100" height="60" as="geometry" />
        </mxCell>
        <mxCell id="_hNOkcOsogZEmMkvzFGR-72" value="" style="verticalLabelPosition=bottom;verticalAlign=top;html=1;shape=hexagon;perimeter=hexagonPerimeter2;arcSize=6;size=0.27;fillColor=#9dbcd3;strokeColor=#000000;strokeWidth=2;" vertex="1" parent="1">
          <mxGeometry x="258" y="1270" width="100" height="60" as="geometry" />
        </mxCell>
        <mxCell id="_hNOkcOsogZEmMkvzFGR-73" value="" style="verticalLabelPosition=bottom;verticalAlign=top;html=1;shape=hexagon;perimeter=hexagonPerimeter2;arcSize=6;size=0.27;fillColor=#9dbcd3;strokeColor=#000000;strokeWidth=2;" vertex="1" parent="1">
          <mxGeometry x="139" y="1370" width="100" height="60" as="geometry" />
        </mxCell>
        <mxCell id="_hNOkcOsogZEmMkvzFGR-74" style="edgeStyle=orthogonalEdgeStyle;rounded=0;orthogonalLoop=1;jettySize=auto;html=1;entryX=1;entryY=0.5;entryDx=0;entryDy=0;endSize=6;strokeWidth=2;startArrow=classic;startFill=1;endArrow=none;endFill=0;targetPerimeterSpacing=0;sourcePerimeterSpacing=0;startSize=10;" edge="1" parent="1" source="_hNOkcOsogZEmMkvzFGR-75" target="_hNOkcOsogZEmMkvzFGR-71">
          <mxGeometry relative="1" as="geometry" />
        </mxCell>
        <mxCell id="_hNOkcOsogZEmMkvzFGR-75" value="" style="verticalLabelPosition=bottom;verticalAlign=top;html=1;shape=mxgraph.flowchart.on-page_reference;fillColor=#fdd199;strokeColor=#d6b656;" vertex="1" parent="1">
          <mxGeometry x="159" y="1270" width="60" height="60" as="geometry" />
        </mxCell>
        <mxCell id="_hNOkcOsogZEmMkvzFGR-97" style="edgeStyle=orthogonalEdgeStyle;rounded=0;orthogonalLoop=1;jettySize=auto;html=1;entryX=0.5;entryY=1;entryDx=0;entryDy=0;exitX=0.5;exitY=0;exitDx=0;exitDy=0;exitPerimeter=0;endSize=10;strokeWidth=2;" edge="1" parent="1" source="_hNOkcOsogZEmMkvzFGR-75" target="_hNOkcOsogZEmMkvzFGR-83">
          <mxGeometry relative="1" as="geometry" />
        </mxCell>
        <mxCell id="_hNOkcOsogZEmMkvzFGR-76" value="$$ \bigoplus $$" style="text;html=1;align=center;verticalAlign=middle;resizable=0;points=[];autosize=1;strokeColor=none;fillColor=none;fontStyle=1;fontSize=18;" vertex="1" parent="1">
          <mxGeometry x="114" y="1280" width="150" height="40" as="geometry" />
        </mxCell>
        <mxCell id="_hNOkcOsogZEmMkvzFGR-77" style="edgeStyle=orthogonalEdgeStyle;rounded=0;orthogonalLoop=1;jettySize=auto;html=1;entryX=0.5;entryY=1;entryDx=0;entryDy=0;entryPerimeter=0;endSize=10;strokeWidth=2;exitX=0.5;exitY=0;exitDx=0;exitDy=0;" edge="1" parent="1" source="_hNOkcOsogZEmMkvzFGR-73" target="_hNOkcOsogZEmMkvzFGR-75">
          <mxGeometry relative="1" as="geometry">
            <mxPoint x="259" y="1330" as="sourcePoint" />
            <Array as="points">
              <mxPoint x="189" y="1350" />
              <mxPoint x="189" y="1350" />
            </Array>
          </mxGeometry>
        </mxCell>
        <mxCell id="_hNOkcOsogZEmMkvzFGR-78" style="edgeStyle=orthogonalEdgeStyle;rounded=0;orthogonalLoop=1;jettySize=auto;html=1;entryX=1;entryY=0.5;entryDx=0;entryDy=0;entryPerimeter=0;endSize=10;strokeWidth=2;exitX=0;exitY=0.5;exitDx=0;exitDy=0;" edge="1" parent="1" source="_hNOkcOsogZEmMkvzFGR-72" target="_hNOkcOsogZEmMkvzFGR-75">
          <mxGeometry relative="1" as="geometry">
            <mxPoint x="245" y="1300" as="sourcePoint" />
            <mxPoint x="231.5" y="1300" as="targetPoint" />
            <Array as="points" />
          </mxGeometry>
        </mxCell>
        <mxCell id="_hNOkcOsogZEmMkvzFGR-79" value="&lt;font size=&quot;1&quot; style=&quot;&quot;&gt;&lt;b style=&quot;font-size: 20px;&quot;&gt;$$f_{t-1}$$&lt;/b&gt;&lt;/font&gt;" style="text;html=1;strokeColor=none;fillColor=none;align=center;verticalAlign=middle;whiteSpace=wrap;rounded=0;" vertex="1" parent="1">
          <mxGeometry x="39" y="1285" width="60" height="30" as="geometry" />
        </mxCell>
        <mxCell id="_hNOkcOsogZEmMkvzFGR-80" value="&lt;font size=&quot;1&quot; style=&quot;&quot;&gt;&lt;b style=&quot;font-size: 20px;&quot;&gt;$$z_t$$&lt;/b&gt;&lt;/font&gt;" style="text;html=1;strokeColor=none;fillColor=none;align=center;verticalAlign=middle;whiteSpace=wrap;rounded=0;" vertex="1" parent="1">
          <mxGeometry x="278" y="1285" width="60" height="30" as="geometry" />
        </mxCell>
        <mxCell id="_hNOkcOsogZEmMkvzFGR-81" value="&lt;font size=&quot;1&quot; style=&quot;&quot;&gt;&lt;b style=&quot;font-size: 20px;&quot;&gt;$$a_t$$&lt;/b&gt;&lt;/font&gt;" style="text;html=1;strokeColor=none;fillColor=none;align=center;verticalAlign=middle;whiteSpace=wrap;rounded=0;" vertex="1" parent="1">
          <mxGeometry x="159" y="1385" width="60" height="30" as="geometry" />
        </mxCell>
        <mxCell id="_hNOkcOsogZEmMkvzFGR-105" style="edgeStyle=orthogonalEdgeStyle;rounded=0;orthogonalLoop=1;jettySize=auto;html=1;exitX=1;exitY=0.5;exitDx=0;exitDy=0;entryX=0;entryY=0.75;entryDx=0;entryDy=0;strokeWidth=2;endSize=10;" edge="1" parent="1" source="_hNOkcOsogZEmMkvzFGR-83" target="_hNOkcOsogZEmMkvzFGR-86">
          <mxGeometry relative="1" as="geometry" />
        </mxCell>
        <mxCell id="_hNOkcOsogZEmMkvzFGR-83" value="" style="verticalLabelPosition=bottom;verticalAlign=top;html=1;shape=hexagon;perimeter=hexagonPerimeter2;arcSize=6;size=0.27;fillColor=#9dbcd3;strokeColor=#000000;strokeWidth=2;" vertex="1" parent="1">
          <mxGeometry x="139" y="1130" width="100" height="60" as="geometry" />
        </mxCell>
        <mxCell id="_hNOkcOsogZEmMkvzFGR-84" value="&lt;font size=&quot;1&quot; style=&quot;&quot;&gt;&lt;b style=&quot;font-size: 20px;&quot;&gt;$$i_t$$&lt;/b&gt;&lt;/font&gt;" style="text;html=1;strokeColor=none;fillColor=none;align=center;verticalAlign=middle;whiteSpace=wrap;rounded=0;" vertex="1" parent="1">
          <mxGeometry x="159" y="1145" width="60" height="30" as="geometry" />
        </mxCell>
        <mxCell id="_hNOkcOsogZEmMkvzFGR-104" style="edgeStyle=orthogonalEdgeStyle;rounded=0;orthogonalLoop=1;jettySize=auto;html=1;exitX=1;exitY=0.25;exitDx=0;exitDy=0;entryX=0;entryY=0.5;entryDx=0;entryDy=0;strokeWidth=2;endSize=10;dashed=1;" edge="1" parent="1" source="_hNOkcOsogZEmMkvzFGR-86" target="_hNOkcOsogZEmMkvzFGR-88">
          <mxGeometry relative="1" as="geometry" />
        </mxCell>
        <mxCell id="_hNOkcOsogZEmMkvzFGR-106" style="edgeStyle=orthogonalEdgeStyle;rounded=0;orthogonalLoop=1;jettySize=auto;html=1;exitX=1;exitY=0.75;exitDx=0;exitDy=0;entryX=0;entryY=0.5;entryDx=0;entryDy=0;strokeWidth=2;endSize=10;" edge="1" parent="1" source="_hNOkcOsogZEmMkvzFGR-86" target="_hNOkcOsogZEmMkvzFGR-92">
          <mxGeometry relative="1" as="geometry" />
        </mxCell>
        <mxCell id="_hNOkcOsogZEmMkvzFGR-86" value="&lt;b&gt;&lt;font style=&quot;font-size: 20px;&quot;&gt;$$LSTM_t$$&lt;/font&gt;&lt;/b&gt;" style="rounded=1;whiteSpace=wrap;html=1;glass=0;arcSize=6;strokeWidth=2;fillColor=#e5e5e5;" vertex="1" parent="1">
          <mxGeometry x="269" y="1010" width="120.31" height="200" as="geometry" />
        </mxCell>
        <mxCell id="_hNOkcOsogZEmMkvzFGR-88" value="" style="verticalLabelPosition=bottom;verticalAlign=top;html=1;shape=hexagon;perimeter=hexagonPerimeter2;arcSize=6;size=0.27;fontSize=20;fontStyle=1;fillColor=#9dbbd3;strokeColor=#000000;strokeWidth=2;" vertex="1" parent="1">
          <mxGeometry x="468.99999999999994" y="1030" width="100" height="60" as="geometry" />
        </mxCell>
        <mxCell id="_hNOkcOsogZEmMkvzFGR-103" style="edgeStyle=orthogonalEdgeStyle;rounded=0;orthogonalLoop=1;jettySize=auto;html=1;entryX=0;entryY=0.25;entryDx=0;entryDy=0;strokeWidth=2;endSize=10;dashed=1;" edge="1" parent="1" source="_hNOkcOsogZEmMkvzFGR-89" target="_hNOkcOsogZEmMkvzFGR-86">
          <mxGeometry relative="1" as="geometry">
            <mxPoint x="259" y="1051" as="targetPoint" />
          </mxGeometry>
        </mxCell>
        <mxCell id="_hNOkcOsogZEmMkvzFGR-89" value="" style="verticalLabelPosition=bottom;verticalAlign=top;html=1;shape=hexagon;perimeter=hexagonPerimeter2;arcSize=6;size=0.27;fontSize=20;fontStyle=1;fillColor=#9dbcd3;strokeColor=#000000;strokeWidth=2;" vertex="1" parent="1">
          <mxGeometry x="89" y="1030" width="100" height="60" as="geometry" />
        </mxCell>
        <mxCell id="_hNOkcOsogZEmMkvzFGR-90" value="&lt;font style=&quot;font-size: 20px;&quot;&gt;&lt;span style=&quot;font-size: 20px;&quot;&gt;$$C_{t-1}$$&lt;/span&gt;&lt;/font&gt;" style="text;html=1;strokeColor=none;fillColor=none;align=center;verticalAlign=middle;whiteSpace=wrap;rounded=0;fontSize=20;fontStyle=1" vertex="1" parent="1">
          <mxGeometry x="109" y="1045" width="60" height="30" as="geometry" />
        </mxCell>
        <mxCell id="_hNOkcOsogZEmMkvzFGR-91" value="&lt;font style=&quot;font-size: 20px;&quot;&gt;&lt;span style=&quot;font-size: 20px;&quot;&gt;$$C_{t}$$&lt;/span&gt;&lt;/font&gt;" style="text;html=1;strokeColor=none;fillColor=none;align=center;verticalAlign=middle;whiteSpace=wrap;rounded=0;fontSize=20;fontStyle=1" vertex="1" parent="1">
          <mxGeometry x="488.99999999999994" y="1045" width="60" height="30" as="geometry" />
        </mxCell>
        <mxCell id="_hNOkcOsogZEmMkvzFGR-107" style="edgeStyle=orthogonalEdgeStyle;rounded=0;orthogonalLoop=1;jettySize=auto;html=1;entryX=0;entryY=0.5;entryDx=0;entryDy=0;strokeWidth=2;endSize=10;" edge="1" parent="1" source="_hNOkcOsogZEmMkvzFGR-92" target="_hNOkcOsogZEmMkvzFGR-94">
          <mxGeometry relative="1" as="geometry" />
        </mxCell>
        <mxCell id="_hNOkcOsogZEmMkvzFGR-92" value="" style="verticalLabelPosition=bottom;verticalAlign=top;html=1;shape=hexagon;perimeter=hexagonPerimeter2;arcSize=6;size=0.27;fillColor=#9cbcd3;strokeColor=#000000;strokeWidth=2;" vertex="1" parent="1">
          <mxGeometry x="421.74999999999994" y="1130" width="100" height="60" as="geometry" />
        </mxCell>
        <mxCell id="_hNOkcOsogZEmMkvzFGR-93" value="&lt;font size=&quot;1&quot; style=&quot;&quot;&gt;&lt;b style=&quot;font-size: 20px;&quot;&gt;$$h_{t}$$&lt;/b&gt;&lt;/font&gt;" style="text;html=1;strokeColor=none;fillColor=none;align=center;verticalAlign=middle;whiteSpace=wrap;rounded=0;" vertex="1" parent="1">
          <mxGeometry x="441.74999999999994" y="1145" width="60" height="30" as="geometry" />
        </mxCell>
        <mxCell id="_hNOkcOsogZEmMkvzFGR-108" value="" style="edgeStyle=orthogonalEdgeStyle;rounded=0;orthogonalLoop=1;jettySize=auto;html=1;entryX=0.5;entryY=0;entryDx=0;entryDy=0;strokeWidth=2;endSize=10;" edge="1" parent="1" source="_hNOkcOsogZEmMkvzFGR-94" target="_hNOkcOsogZEmMkvzFGR-95">
          <mxGeometry relative="1" as="geometry" />
        </mxCell>
        <mxCell id="_hNOkcOsogZEmMkvzFGR-94" value="&lt;span&gt;&lt;font style=&quot;font-size: 20px;&quot;&gt;Output&lt;br&gt;Transformer&lt;br&gt;&lt;/font&gt;&lt;/span&gt;" style="rounded=1;whiteSpace=wrap;html=1;glass=0;arcSize=6;strokeWidth=2;fillColor=#e5e5e5;fontStyle=0" vertex="1" parent="1">
          <mxGeometry x="568.9999999999999" y="1110" width="120.31" height="100" as="geometry" />
        </mxCell>
        <mxCell id="_hNOkcOsogZEmMkvzFGR-129" style="edgeStyle=orthogonalEdgeStyle;rounded=0;orthogonalLoop=1;jettySize=auto;html=1;entryX=0;entryY=0.5;entryDx=0;entryDy=0;strokeWidth=2;endSize=10;" edge="1" parent="1" source="_hNOkcOsogZEmMkvzFGR-95" target="_hNOkcOsogZEmMkvzFGR-115">
          <mxGeometry relative="1" as="geometry">
            <Array as="points">
              <mxPoint x="749" y="1280" />
              <mxPoint x="749" y="1385" />
            </Array>
          </mxGeometry>
        </mxCell>
        <mxCell id="_hNOkcOsogZEmMkvzFGR-130" style="edgeStyle=orthogonalEdgeStyle;rounded=0;orthogonalLoop=1;jettySize=auto;html=1;exitX=1;exitY=0.5;exitDx=0;exitDy=0;entryX=0;entryY=0.5;entryDx=0;entryDy=0;strokeWidth=2;endSize=10;" edge="1" parent="1" source="_hNOkcOsogZEmMkvzFGR-95" target="_hNOkcOsogZEmMkvzFGR-122">
          <mxGeometry relative="1" as="geometry" />
        </mxCell>
        <mxCell id="_hNOkcOsogZEmMkvzFGR-95" value="" style="verticalLabelPosition=bottom;verticalAlign=top;html=1;shape=hexagon;perimeter=hexagonPerimeter2;arcSize=6;size=0.27;fillColor=#9cbcd3;strokeColor=#000000;strokeWidth=2;" vertex="1" parent="1">
          <mxGeometry x="579.15" y="1250" width="100" height="60" as="geometry" />
        </mxCell>
        <mxCell id="_hNOkcOsogZEmMkvzFGR-109" style="edgeStyle=orthogonalEdgeStyle;rounded=0;orthogonalLoop=1;jettySize=auto;html=1;entryX=0.5;entryY=0;entryDx=0;entryDy=0;exitX=0.5;exitY=1;exitDx=0;exitDy=0;strokeWidth=2;endSize=10;" edge="1" parent="1" source="_hNOkcOsogZEmMkvzFGR-95" target="_hNOkcOsogZEmMkvzFGR-98">
          <mxGeometry relative="1" as="geometry" />
        </mxCell>
        <mxCell id="_hNOkcOsogZEmMkvzFGR-96" value="&lt;font style=&quot;font-size: 20px;&quot;&gt;&lt;b&gt;$$\widehat{v}_t^{\text {synth }}$$&lt;/b&gt;&lt;/font&gt;" style="text;html=1;strokeColor=none;fillColor=none;align=center;verticalAlign=middle;whiteSpace=wrap;rounded=0;" vertex="1" parent="1">
          <mxGeometry x="599.15" y="1265" width="60" height="30" as="geometry" />
        </mxCell>
        <mxCell id="_hNOkcOsogZEmMkvzFGR-110" style="edgeStyle=orthogonalEdgeStyle;rounded=0;orthogonalLoop=1;jettySize=auto;html=1;exitX=0.5;exitY=1;exitDx=0;exitDy=0;entryX=0.5;entryY=0;entryDx=0;entryDy=0;strokeWidth=2;endSize=10;" edge="1" parent="1" source="_hNOkcOsogZEmMkvzFGR-98" target="_hNOkcOsogZEmMkvzFGR-101">
          <mxGeometry relative="1" as="geometry" />
        </mxCell>
        <mxCell id="_hNOkcOsogZEmMkvzFGR-98" value="&lt;span&gt;&lt;font style=&quot;font-size: 20px;&quot;&gt;Input&lt;br&gt;Transformer&lt;br&gt;&lt;/font&gt;&lt;/span&gt;" style="rounded=1;whiteSpace=wrap;html=1;glass=0;arcSize=6;strokeWidth=2;fillColor=#e5e5e5;fontStyle=0" vertex="1" parent="1">
          <mxGeometry x="568.9999999999999" y="1345" width="120.31" height="100" as="geometry" />
        </mxCell>
        <mxCell id="_hNOkcOsogZEmMkvzFGR-101" value="" style="verticalLabelPosition=bottom;verticalAlign=top;html=1;shape=hexagon;perimeter=hexagonPerimeter2;arcSize=6;size=0.27;fillColor=#9dbcd3;strokeColor=#000000;strokeWidth=2;" vertex="1" parent="1">
          <mxGeometry x="579.15" y="1480" width="100" height="60" as="geometry" />
        </mxCell>
        <mxCell id="_hNOkcOsogZEmMkvzFGR-102" value="&lt;font size=&quot;1&quot; style=&quot;&quot;&gt;&lt;b style=&quot;font-size: 20px;&quot;&gt;$$f_t$$&lt;/b&gt;&lt;/font&gt;" style="text;html=1;strokeColor=none;fillColor=none;align=center;verticalAlign=middle;whiteSpace=wrap;rounded=0;" vertex="1" parent="1">
          <mxGeometry x="599.15" y="1495" width="60" height="30" as="geometry" />
        </mxCell>
        <mxCell id="_hNOkcOsogZEmMkvzFGR-112" value="&lt;span style=&quot;font-size: 20px;&quot;&gt;&lt;font style=&quot;font-size: 20px;&quot;&gt;Discriminator&lt;/font&gt;&lt;/span&gt;" style="rounded=1;whiteSpace=wrap;html=1;fillColor=#d5e8d4;strokeColor=#000000;strokeWidth=3;verticalAlign=middle;fontFamily=Helvetica;fontSize=20;fontStyle=1;opacity=80;" vertex="1" parent="1">
          <mxGeometry x="949" y="1200" width="200" height="160" as="geometry" />
        </mxCell>
        <mxCell id="_hNOkcOsogZEmMkvzFGR-113" value="" style="verticalLabelPosition=bottom;verticalAlign=top;html=1;shape=hexagon;perimeter=hexagonPerimeter2;arcSize=6;size=0.27;fillColor=#9cbcd3;strokeColor=#000000;strokeWidth=2;" vertex="1" parent="1">
          <mxGeometry x="789" y="1480" width="100" height="60" as="geometry" />
        </mxCell>
        <mxCell id="_hNOkcOsogZEmMkvzFGR-114" value="&lt;font style=&quot;font-size: 20px;&quot;&gt;&lt;b&gt;$$v_t^{\text {synth }}$$&lt;/b&gt;&lt;/font&gt;" style="text;html=1;strokeColor=none;fillColor=none;align=center;verticalAlign=middle;whiteSpace=wrap;rounded=0;" vertex="1" parent="1">
          <mxGeometry x="809" y="1495" width="60" height="30" as="geometry" />
        </mxCell>
        <mxCell id="_hNOkcOsogZEmMkvzFGR-131" style="edgeStyle=orthogonalEdgeStyle;rounded=0;orthogonalLoop=1;jettySize=auto;html=1;exitX=0.5;exitY=1;exitDx=0;exitDy=0;entryX=0.5;entryY=0;entryDx=0;entryDy=0;strokeWidth=2;endSize=10;" edge="1" parent="1" source="_hNOkcOsogZEmMkvzFGR-115" target="_hNOkcOsogZEmMkvzFGR-113">
          <mxGeometry relative="1" as="geometry" />
        </mxCell>
        <mxCell id="_hNOkcOsogZEmMkvzFGR-115" value="&lt;font style=&quot;font-size: 14px;&quot;&gt;&lt;b&gt;Sampling&lt;/b&gt;&lt;/font&gt;" style="shape=parallelogram;html=1;strokeWidth=2;perimeter=parallelogramPerimeter;whiteSpace=wrap;rounded=1;arcSize=12;size=0.23;strokeColor=#d79b00;align=center;verticalAlign=middle;fontFamily=Helvetica;fontSize=12;fillColor=#ffe6cc;" vertex="1" parent="1">
          <mxGeometry x="779" y="1355" width="120" height="60" as="geometry" />
        </mxCell>
        <mxCell id="_hNOkcOsogZEmMkvzFGR-124" style="edgeStyle=orthogonalEdgeStyle;rounded=0;orthogonalLoop=1;jettySize=auto;html=1;exitX=0.5;exitY=1;exitDx=0;exitDy=0;entryX=0.5;entryY=0;entryDx=0;entryDy=0;strokeWidth=2;endSize=10;" edge="1" parent="1" source="_hNOkcOsogZEmMkvzFGR-116" target="_hNOkcOsogZEmMkvzFGR-112">
          <mxGeometry relative="1" as="geometry" />
        </mxCell>
        <mxCell id="_hNOkcOsogZEmMkvzFGR-116" value="&lt;font style=&quot;font-size: 14px;&quot;&gt;&lt;b&gt;Label&lt;br&gt;smoothing&lt;br&gt;&lt;/b&gt;&lt;/font&gt;" style="shape=parallelogram;html=1;strokeWidth=2;perimeter=parallelogramPerimeter;whiteSpace=wrap;rounded=1;arcSize=12;size=0.23;strokeColor=#d79b00;align=center;verticalAlign=middle;fontFamily=Helvetica;fontSize=12;fillColor=#ffe6cc;" vertex="1" parent="1">
          <mxGeometry x="989" y="1115" width="120" height="60" as="geometry" />
        </mxCell>
        <mxCell id="_hNOkcOsogZEmMkvzFGR-127" style="edgeStyle=orthogonalEdgeStyle;rounded=0;orthogonalLoop=1;jettySize=auto;html=1;exitX=0.5;exitY=1;exitDx=0;exitDy=0;entryX=0.5;entryY=0;entryDx=0;entryDy=0;strokeWidth=2;endSize=10;" edge="1" parent="1" source="_hNOkcOsogZEmMkvzFGR-117" target="_hNOkcOsogZEmMkvzFGR-118">
          <mxGeometry relative="1" as="geometry" />
        </mxCell>
        <mxCell id="_hNOkcOsogZEmMkvzFGR-117" value="&lt;font style=&quot;font-size: 14px;&quot;&gt;&lt;b&gt;Encoding&lt;/b&gt;&lt;/font&gt;" style="shape=parallelogram;html=1;strokeWidth=2;perimeter=parallelogramPerimeter;whiteSpace=wrap;rounded=1;arcSize=12;size=0.23;strokeColor=#d79b00;align=center;verticalAlign=middle;fontFamily=Helvetica;fontSize=12;fillColor=#ffe6cc;" vertex="1" parent="1">
          <mxGeometry x="989" y="940" width="120" height="60" as="geometry" />
        </mxCell>
        <mxCell id="_hNOkcOsogZEmMkvzFGR-126" style="edgeStyle=orthogonalEdgeStyle;rounded=0;orthogonalLoop=1;jettySize=auto;html=1;strokeWidth=2;endSize=10;" edge="1" parent="1" source="_hNOkcOsogZEmMkvzFGR-118" target="_hNOkcOsogZEmMkvzFGR-116">
          <mxGeometry relative="1" as="geometry" />
        </mxCell>
        <mxCell id="_hNOkcOsogZEmMkvzFGR-118" value="" style="verticalLabelPosition=bottom;verticalAlign=top;html=1;shape=hexagon;perimeter=hexagonPerimeter2;arcSize=6;size=0.27;fillColor=#9cbcd3;strokeColor=#000000;strokeWidth=2;" vertex="1" parent="1">
          <mxGeometry x="999" y="1030" width="100" height="60" as="geometry" />
        </mxCell>
        <mxCell id="_hNOkcOsogZEmMkvzFGR-119" value="&lt;font style=&quot;font-size: 20px;&quot;&gt;&lt;b&gt;$$\widehat{v}_t$$&lt;/b&gt;&lt;/font&gt;" style="text;html=1;strokeColor=none;fillColor=none;align=center;verticalAlign=middle;whiteSpace=wrap;rounded=0;" vertex="1" parent="1">
          <mxGeometry x="1019" y="1045" width="60" height="30" as="geometry" />
        </mxCell>
        <mxCell id="_hNOkcOsogZEmMkvzFGR-128" style="edgeStyle=orthogonalEdgeStyle;rounded=0;orthogonalLoop=1;jettySize=auto;html=1;exitX=1;exitY=0.5;exitDx=0;exitDy=0;entryX=0;entryY=0.5;entryDx=0;entryDy=0;strokeWidth=2;endSize=10;" edge="1" parent="1" source="_hNOkcOsogZEmMkvzFGR-120" target="_hNOkcOsogZEmMkvzFGR-117">
          <mxGeometry relative="1" as="geometry" />
        </mxCell>
        <mxCell id="_hNOkcOsogZEmMkvzFGR-120" value="" style="verticalLabelPosition=bottom;verticalAlign=top;html=1;shape=hexagon;perimeter=hexagonPerimeter2;arcSize=6;size=0.27;fillColor=#9cbcd3;strokeColor=#000000;strokeWidth=2;" vertex="1" parent="1">
          <mxGeometry x="798" y="940" width="100" height="60" as="geometry" />
        </mxCell>
        <mxCell id="_hNOkcOsogZEmMkvzFGR-121" value="&lt;font style=&quot;font-size: 20px;&quot;&gt;&lt;b&gt;$$v_t$$&lt;/b&gt;&lt;/font&gt;" style="text;html=1;strokeColor=none;fillColor=none;align=center;verticalAlign=middle;whiteSpace=wrap;rounded=0;" vertex="1" parent="1">
          <mxGeometry x="818" y="955" width="60" height="30" as="geometry" />
        </mxCell>
        <mxCell id="_hNOkcOsogZEmMkvzFGR-123" style="edgeStyle=orthogonalEdgeStyle;rounded=0;orthogonalLoop=1;jettySize=auto;html=1;exitX=1;exitY=0.5;exitDx=0;exitDy=0;entryX=0;entryY=0.5;entryDx=0;entryDy=0;strokeWidth=2;endSize=10;" edge="1" parent="1" source="_hNOkcOsogZEmMkvzFGR-122" target="_hNOkcOsogZEmMkvzFGR-112">
          <mxGeometry relative="1" as="geometry" />
        </mxCell>
        <mxCell id="_hNOkcOsogZEmMkvzFGR-122" value="&lt;font style=&quot;font-size: 14px;&quot;&gt;&lt;b&gt;Label&lt;br&gt;smoothing&lt;br&gt;&lt;/b&gt;&lt;/font&gt;" style="shape=parallelogram;html=1;strokeWidth=2;perimeter=parallelogramPerimeter;whiteSpace=wrap;rounded=1;arcSize=12;size=0.23;strokeColor=#d79b00;align=center;verticalAlign=middle;fontFamily=Helvetica;fontSize=12;fillColor=#ffe6cc;" vertex="1" parent="1">
          <mxGeometry x="779" y="1250" width="120" height="60" as="geometry" />
        </mxCell>
        <mxCell id="_hNOkcOsogZEmMkvzFGR-132" value="" style="edgeStyle=none;orthogonalLoop=1;jettySize=auto;html=1;rounded=1;fontFamily=Helvetica;fontSize=12;fontColor=default;curved=0;endSize=0;endArrow=none;endFill=0;dashed=1;strokeWidth=3;" edge="1" parent="1">
          <mxGeometry width="80" relative="1" as="geometry">
            <mxPoint x="729" y="920" as="sourcePoint" />
            <mxPoint x="729" y="1560" as="targetPoint" />
            <Array as="points" />
          </mxGeometry>
        </mxCell>
        <mxCell id="_hNOkcOsogZEmMkvzFGR-133" value="" style="edgeStyle=none;orthogonalLoop=1;jettySize=auto;html=1;rounded=1;fontFamily=Helvetica;fontSize=12;fontColor=default;curved=0;endSize=0;endArrow=none;endFill=0;dashed=1;strokeWidth=3;" edge="1" parent="1">
          <mxGeometry width="80" relative="1" as="geometry">
            <mxPoint x="1158" y="920" as="sourcePoint" />
            <mxPoint x="1158" y="1560" as="targetPoint" />
            <Array as="points" />
          </mxGeometry>
        </mxCell>
        <mxCell id="_hNOkcOsogZEmMkvzFGR-134" value="" style="edgeStyle=none;orthogonalLoop=1;jettySize=auto;html=1;rounded=1;fontFamily=Helvetica;fontSize=12;fontColor=default;curved=0;endSize=0;endArrow=none;endFill=0;dashed=1;strokeWidth=3;" edge="1" parent="1">
          <mxGeometry width="80" relative="1" as="geometry">
            <mxPoint x="1159" y="920" as="sourcePoint" />
            <mxPoint x="729" y="920" as="targetPoint" />
            <Array as="points" />
          </mxGeometry>
        </mxCell>
        <mxCell id="_hNOkcOsogZEmMkvzFGR-135" value="" style="edgeStyle=none;orthogonalLoop=1;jettySize=auto;html=1;rounded=1;fontFamily=Helvetica;fontSize=12;fontColor=default;curved=0;endSize=0;endArrow=none;endFill=0;dashed=1;strokeWidth=3;" edge="1" parent="1">
          <mxGeometry width="80" relative="1" as="geometry">
            <mxPoint x="1158" y="1560" as="sourcePoint" />
            <mxPoint x="728" y="1560" as="targetPoint" />
            <Array as="points" />
          </mxGeometry>
        </mxCell>
        <mxCell id="_hNOkcOsogZEmMkvzFGR-136" value="&lt;i style=&quot;font-size: 14px;&quot;&gt;&lt;font style=&quot;font-size: 14px;&quot;&gt;Outside of the generator&lt;/font&gt;&lt;/i&gt;" style="text;html=1;align=center;verticalAlign=middle;resizable=0;points=[];autosize=1;strokeColor=none;fillColor=none;fontSize=14;fontFamily=Helvetica;fontColor=default;" vertex="1" parent="1">
          <mxGeometry x="979" y="1525" width="170" height="30" as="geometry" />
        </mxCell>
      </root>
    </mxGraphModel>
  </diagram>
</mxfile>
